PathFileType	4	(X/Y/Z)	Demo_0-100.trc
DataRate	CameraRate	NumFrames	NumMarkers	Units	OrigDataRate	OrigDataStartFrame	OrigNumFrames
60	60	9	21	m	60	75	100
Frame#	Time	RHip			RKnee			RAnkle			RBigToe			RSmallToe			RHeel			LHip			LKnee			LAnkle			LBigToe			LSmallToe			LHeel			Neck			Head			Nose			RShoulder			RElbow			RWrist			LShoulder			LElbow			LWrist		
		X1	Y1	Z1	X2	Y2	Z2	X3	Y3	Z3	X4	Y4	Z4	X5	Y5	Z5	X6	Y6	Z6	X7	Y7	Z7	X8	Y8	Z8	X9	Y9	Z9	X10	Y10	Z10	X11	Y11	Z11	X12	Y12	Z12	X13	Y13	Z13	X14	Y14	Z14	X15	Y15	Z15	X16	Y16	Z16	X17	Y17	Z17	X18	Y18	Z18	X19	Y19	Z19	X20	Y20	Z20	X21	Y21	Z21
76	1.2666666666666666	-0.1721685453736462	0.9422156701969296	-0.8327469979958174	-0.11443452129506701	0.5478527270319394	-0.7383738507508121	-0.06411007199091695	0.13994350395526584	-0.7566260323142023	-0.054477543081605476	0.05073809593396518	-0.6207717184284663	-0.0925596502484023	0.05446528976884288	-0.6260662319668874	-0.05847817772394063	0.09048110413855022	-0.7856687141606379	0.029446354300324388	0.8898831973543837	-0.9229846525415804	-0.0004948238721051426	0.516593328215205	-0.9122493365887145	-0.02849185860610454	0.15932146455817317	-1.1508950284849637	0.002817442293036577	0.07265622398807028	-0.9807277205359742	0.014328072091932228	0.07703467394096326	-1.039011284136649	-0.03556746069018086	0.14776555165616145	-1.1316222210150906	0.08743110226878495	1.4027236540354753	-0.7657075999496878	0.2087828938571567	1.611053830636133	-0.5569024898777216	0.15969490021427882	1.4389404944084958	-0.5948930957747752	-0.0700332411580877	1.443502171690258	-0.7218852566175362	-0.34432716069962505	1.389164222119634	-0.7679685184396192	-0.30854126853926284	1.4234625071140308	-0.5494118758501668	0.22108994591933911	1.3263346267267977	-0.87412569752138	0.35243795322119204	1.0861586396679643	-0.9824334124445615	0.46643336617914194	0.8623956519064373	-0.8424736682064781
77	1.2833333333333334	-0.16021987859930947	0.9385387820810532	-0.8291751011715115	-0.11348924964407976	0.5404153636436154	-0.731644268573371	-0.05558678300382952	0.13798108519050298	-0.7628604497404244	-0.06638462191354197	0.03525962124380004	-0.6502492927935761	-0.08487502101023998	0.04146816004075575	-0.6324455218749915	-0.042422416724905425	0.08934747501665277	-0.7936543167756244	0.03857442106870237	0.8841604874136905	-0.908374036833165	0.00034138023116183616	0.5097912032660393	-0.8947466260195791	-0.02978045163845312	0.1563756088372272	-1.1432604163599267	0.0031375033386189795	0.07181136166027503	-0.9802484769718878	0.012822025778194145	0.07109277873681877	-1.036523557223245	-0.031091691842390728	0.14710483758222928	-1.1322115262353998	0.08131284665774428	1.4083661162599794	-0.7605924714507265	0.18869294042718468	1.6213300303164904	-0.5399529145645262	0.1372763445464764	1.4626914063030982	-0.5692381194635512	-0.08518029029715556	1.444026961060222	-0.7279624135050263	-0.33544411277772035	1.360909847722448	-0.8215355105392146	-0.3153531482276687	1.4352941487038788	-0.5431217009026069	0.23054503909870339	1.3418720811565599	-0.8083974306763797	0.35385753144757	1.1026819553777376	-0.9673828800634304	0.4814870829631114	0.8895201874170039	-0.8274237935562326
78	1.3	-0.1462944826451381	0.9246396781763656	-0.8149110859458002	-0.1037662415607629	0.5331342618513532	-0.7302592353632625	-0.05079697926280491	0.12000106192097429	-0.7610232836339083	-0.07117334179378579	0.026948731215950688	-0.6434538023312727	-0.06504976355068696	0.020959349109943744	-0.6297132834373359	-0.03306277429521249	0.08489886146686437	-0.7879560126208909	0.04129302375972751	0.8797361877714207	-0.8949138888755936	0.007563763954445384	0.5098634261113497	-0.8884988303934572	-0.025455471959618947	0.16125789356992895	-1.146745670989028	0.0022305945191706065	0.07053857175741082	-0.9844768893422337	0.017084348889064332	0.0705769250820527	-1.0462176501035685	-0.03269932911888148	0.15344900398352318	-1.1363488139419675	0.06588011778647161	1.4165754280001155	-0.7450157832578483	0.17177106230552347	1.6257223491947985	-0.538751974880835	0.12694528510275016	1.469769656751671	-0.5738127602322818	-0.09506092262993832	1.4321005493310266	-0.7243629733249203	-0.3670436540608391	1.353093897002286	-0.7404394002828943	-0.34152662351500435	1.430576635828715	-0.5499825617431825	0.22420935591097021	1.3487676112476823	-0.8030933815402295	0.3534872052359732	1.1217546874966866	-0.9601961317595126	0.48285353511327345	0.9170125153429189	-0.8624297712669979
79	1.3166666666666667	-0.13889175396568848	0.9221636565594951	-0.7975520477553025	-0.1006677993063668	0.5322662494405609	-0.709922172520631	-0.05188897156455833	0.1258904730167413	-0.7614650971230846	-0.04286710541916352	0.036590832700007334	-0.6195353055967598	-0.08139759922863367	0.043279627605465006	-0.6270172017830045	-0.037051668674141607	0.08304260172832056	-0.7861100664813031	0.033580483051374926	0.8928873346900569	-0.9199861013285556	0.006937931968234978	0.48609540136322915	-0.9058121563913346	-0.022336455896537145	0.1658489805039276	-1.147344054350046	0.004252499628515466	0.07363694742780812	-0.9852368471731606	0.014303175725913617	0.07969492975605275	-1.0495963903146952	-0.03506118721429079	0.16591268225951403	-1.148302926388288	0.05037675557909119	1.4167028259910226	-0.7291660289345442	0.15214331310443704	1.6218851487114445	-0.5584925433305066	0.11821790939894818	1.4763835829184773	-0.5652667881737324	-0.11916041233194039	1.422804377642505	-0.7586153656537502	-0.36850083160086194	1.3422576678934024	-0.7191101233286484	-0.38009106637036594	1.4240273489373447	-0.59122866091185	0.21491995043255901	1.362416238138735	-0.7826179038247231	0.37590860703981	1.1333079511682171	-0.9128722299747848	0.5120116181140538	0.942460345551523	-0.834267039175224
80	1.3333333333333333	-0.13837005457937432	0.9192706576914611	-0.7932794431016497	-0.09829013106364647	0.5296035690810309	-0.7007424101869256	-0.05112630581643035	0.1293900934753403	-0.7527181957531931	-0.04530303335836536	0.03902256639154277	-0.6116871958158786	-0.07921506809887405	0.043302898460632726	-0.6258161604673558	-0.042262039492239944	0.08612035620068426	-0.7898296911501138	0.07445089531317114	0.8758008970859624	-0.8193501578296799	0.018113050919301512	0.48573240941520246	-0.8922207901895979	-0.019744417211114997	0.17366632023797499	-1.1378637371208105	0.005623904605742641	0.07460610280929135	-0.9779985971253615	0.01413174739280361	0.07876690001092444	-1.0379728817426792	-0.03303948589625894	0.17500143523217787	-1.1452798170859246	0.041314441019391066	1.4181272523293966	-0.7188809985107026	0.12984116531718726	1.6458623805961168	-0.5251925074577259	0.09644316039426543	1.471472193464308	-0.5706399793064628	-0.12753833962513442	1.422089725802218	-0.7442871805376434	-0.3750851958352204	1.327576570815719	-0.7255520333873886	-0.3733235462747026	1.3908441910059481	-0.5240656663846159	0.19615301291124562	1.3661448722299987	-0.8180223031875092	0.3711116390944576	1.1654276452736934	-0.9021139338044343	0.517073753752534	0.988031409550304	-0.8341927585059955
81	1.35	-0.13408117960849475	0.9136301520322107	-0.7796781209346418	-0.11788057788608397	0.5131738979802822	-0.7289239272092346	-0.05405957791921157	0.12421244550988667	-0.7515365891028009	-0.06476360893799422	0.03676693163487942	-0.6452218341021443	-0.06959131965286423	0.024438090358567793	-0.6192443907975924	-0.04474594672028694	0.08407086011145556	-0.7861439063738805	0.0836137597346968	0.884201983930282	-0.7935173561529498	0.023517535504523922	0.48500696331056026	-0.8809813312013703	-0.01720409724822004	0.18247775010847472	-1.1320739347089597	0.0057210083357221095	0.07590557000863157	-0.9883889384775965	0.014541402822771709	0.08390523859253902	-1.0447520183714867	-0.02961900365039517	0.16343413688610153	-1.1823013800879927	0.023428780579326656	1.420261536460435	-0.6998519470810829	0.094107600343146	1.6376396112514995	-0.5234116066590886	0.058833735581768916	1.487579717157383	-0.5208091447352072	-0.15006485398244662	1.4150138467375888	-0.7321685502426603	-0.382434146894153	1.3180455981390207	-0.7258550204131496	-0.3961722976196934	1.378118249030086	-0.5196755901579324	0.18231179143074172	1.3746556112336876	-0.7988106862695967	0.39417264698320775	1.1992108102142809	-0.8380271472955116	0.5305707193394583	1.0310504601276018	-0.798419872367487
82	1.3666666666666667	-0.12624869692848345	0.9134263711684284	-0.7748679970060792	-0.08062371273288377	0.5680310551624065	-0.6190106921111309	-0.05460271645228805	0.12116422141031656	-0.7582398633277821	-0.05039711957398361	0.042718159780474635	-0.6169617535112313	-0.0748174758121775	0.02297959137920572	-0.6224108580318757	-0.04076900330763501	0.08378512829053537	-0.7941548772944594	0.060045015767006174	0.9000471710940088	-0.87120826144131	0.029799972977154986	0.48884407545943404	-0.8708484526292112	-0.007240431177763166	0.20016353995906436	-1.1148855404384643	0.0034509679196436196	0.08322825508367056	-0.9783236935429327	0.01180139353344309	0.11201906830810798	-0.9834272414569061	-0.020381307624263954	0.1805307036721311	-1.1828872830977002	0.013290062207523698	1.419008114007019	-0.6939706088899208	0.06285817879653782	1.6414050255831951	-0.5055327701134146	0.05363689522937818	1.4850157458544955	-0.5242971128868124	-0.14823741455861814	1.4222608833353954	-0.6730928037206882	-0.3706360287021606	1.2974761526750236	-0.7246413612305856	-0.45329585765665004	1.3535039638533721	-0.5902401176580274	0.1625871627842615	1.3926956569927644	-0.8256576859222065	0.3776005005252314	1.2142141898924939	-0.9007899973487247	0.5503454828163815	1.0718167447277087	-0.8368428885069232
83	1.3833333333333333	-0.12226685544955447	0.9104243651864864	-0.7747557021237376	-0.07427914117294525	0.5297306640002379	-0.6564356444684376	-0.05573548412044884	0.1246331593319088	-0.7536802428121954	-0.05435158312222514	0.03499209552852239	-0.6098869332075908	-0.08442055536377012	0.03936681718777119	-0.6328825224975761	-0.0419073501006621	0.08696917251642437	-0.7906430490453186	0.06299811533846393	0.9048751134085129	-0.8708157931361362	0.052022099599130525	0.48980205880940175	-0.8280895742010587	0.0032843029777290932	0.20774789985288303	-1.0922279015112604	0.0059721294409406005	0.07733881258862008	-0.9778734041612765	0.018827266976200113	0.08316810973411651	-1.0334320586080865	-0.007131606562985493	0.18664751414004643	-1.173154723136637	0.013345810581844203	1.4134636326656826	-0.6960528354903651	0.03590804720867856	1.6425350432259016	-0.48950175510106003	0.03253776174526176	1.4898715019200193	-0.5055169465509007	-0.16204687708695048	1.419800971811211	-0.6707378271609888	-0.38699525690206915	1.2866803823041844	-0.7095264049424159	-0.44288308128135906	1.334717915386346	-0.5057760100312213	0.15322636672824125	1.3971538866387563	-0.8147587410600096	0.3465236867910108	1.269220084136332	-0.916481541670266	0.5807033281967299	1.1089017987012022	-0.8049625055605875
84	1.4	-0.1077246447558997	0.9121664791336123	-0.764600307030262	-0.09833986407279666	0.5133997056429943	-0.6963172604022264	-0.04885626014580221	0.12316963395041745	-0.7543221088165138	-0.053090116402987934	0.038746153837780024	-0.6108487639505922	-0.06587889287847505	0.01670971538946501	-0.6288626133991263	-0.03028325896387961	0.08682609517708763	-0.7916698038842542	0.10858674591025438	0.8866993858803399	-0.7597699105590158	0.057685573999001094	0.48729042275458195	-0.8054035757811459	0.011239938491948103	0.22835984452834895	-1.0507037914111597	0.006708467395096332	0.07716832779467044	-0.9714975478616402	0.017205268579056982	0.12008888735311284	-0.9587252975331524	0.00287093792549505	0.21629984274060443	-1.1124992261374695	0.006355718794968552	1.4169689884631367	-0.6885565539037094	0.009815555800494011	1.6453130190138128	-0.46778880228403735	0.024059098283308357	1.494534148490928	-0.4970065243814494	-0.16640509371818374	1.4163947860673147	-0.6540277102214863	-0.38707592460948576	1.2740833336444495	-0.6752174526392489	-0.4489624321176084	1.3109392584940767	-0.46437722112730834	0.14619820467950692	1.4072196981072642	-0.7954449763816853	0.379542209407788	1.2820347033370458	-0.8618375478098724	0.581647832521867	1.1524557745118043	-0.7714602748004427
